<svg width="80" height="81" viewBox="0 0 80 81" fill="none" xmlns="http://www.w3.org/2000/svg">
<path opacity="0.1" fill-rule="evenodd" clip-rule="evenodd" d="M0 40.7988C0 18.7074 17.9086 0.798828 40 0.798828C62.0914 0.798828 80 18.7074 80 40.7988C80 62.8902 62.0914 80.7988 40 80.7988C17.9086 80.7988 0 62.8902 0 40.7988Z" fill="white"/>
<path d="M52 20.3918H46C43.3478 20.3918 40.8043 21.4454 38.9289 23.3208C37.0536 25.1961 36 27.7397 36 30.3918V36.3918H30V44.3918H36V60.3918H44V44.3918H50L52 36.3918H44V30.3918C44 29.8614 44.2107 29.3527 44.5858 28.9776C44.9609 28.6026 45.4696 28.3918 46 28.3918H52V20.3918Z" stroke="white" stroke-width="4" stroke-linecap="round" stroke-linejoin="round"/>
</svg>
