<svg width="80" height="81" viewBox="0 0 80 81" fill="none" xmlns="http://www.w3.org/2000/svg">
<path opacity="0.1" fill-rule="evenodd" clip-rule="evenodd" d="M0 40.7988C0 18.7074 17.9086 0.798828 40 0.798828C62.0914 0.798828 80 18.7074 80 40.7988C80 62.8902 62.0914 80.7988 40 80.7988C17.9086 80.7988 0 62.8902 0 40.7988Z" fill="white"/>
<path fill-rule="evenodd" clip-rule="evenodd" d="M40.002 19.4658C34.2081 19.4658 33.481 19.4912 31.2054 19.5947C28.9343 19.6987 27.3841 20.0583 26.0276 20.5858C24.6245 21.1307 23.4342 21.8596 22.2484 23.0459C21.0618 24.2316 20.3329 25.4219 19.7862 26.8246C19.2573 28.1815 18.8973 29.7321 18.7951 32.0024C18.6933 34.278 18.6666 35.0055 18.6666 40.7994C18.6666 46.5932 18.6924 47.3181 18.7955 49.5937C18.9 51.8648 19.2595 53.4151 19.7866 54.7715C20.332 56.1746 21.0609 57.3649 22.2471 58.5507C23.4325 59.7374 24.6227 60.468 26.0249 61.0129C27.3823 61.5405 28.933 61.9 31.2036 62.004C33.4792 62.1076 34.2059 62.1329 39.9993 62.1329C45.7936 62.1329 46.5185 62.1076 48.7941 62.004C51.0652 61.9 52.6172 61.5405 53.9746 61.0129C55.3772 60.468 56.5657 59.7374 57.751 58.5507C58.9377 57.3649 59.6666 56.1746 60.2133 54.772C60.7377 53.4151 61.0977 51.8644 61.2044 49.5941C61.3066 47.3186 61.3333 46.5932 61.3333 40.7994C61.3333 35.0055 61.3066 34.2784 61.2044 32.0028C61.0977 29.7317 60.7377 28.1815 60.2133 26.825C59.6666 25.4219 58.9377 24.2316 57.751 23.0459C56.5644 21.8592 55.3777 21.1303 53.9732 20.5858C52.6132 20.0583 51.0621 19.6987 48.7909 19.5947C46.5154 19.4912 45.7909 19.4658 39.9953 19.4658H40.002ZM38.0881 23.3102C38.6561 23.3094 39.2899 23.3102 40.0019 23.3102C45.6979 23.3102 46.373 23.3307 48.6224 23.4329C50.7024 23.528 51.8313 23.8756 52.5833 24.1676C53.5789 24.5543 54.2887 25.0165 55.0349 25.7632C55.7816 26.5098 56.2438 27.221 56.6314 28.2165C56.9234 28.9676 57.2714 30.0965 57.366 32.1766C57.4683 34.4255 57.4905 35.101 57.4905 40.7944C57.4905 46.4878 57.4683 47.1634 57.366 49.4123C57.2709 51.4923 56.9234 52.6212 56.6314 53.3723C56.2447 54.3679 55.7816 55.0768 55.0349 55.823C54.2882 56.5697 53.5793 57.0319 52.5833 57.4186C51.8322 57.7119 50.7024 58.0586 48.6224 58.1537C46.3735 58.2559 45.6979 58.2782 40.0019 58.2782C34.3054 58.2782 33.6302 58.2559 31.3813 58.1537C29.3013 58.0577 28.1724 57.7102 27.42 57.4182C26.4244 57.0315 25.7133 56.5693 24.9666 55.8226C24.2199 55.0759 23.7577 54.3666 23.3701 53.3706C23.0781 52.6194 22.7301 51.4905 22.6355 49.4105C22.5332 47.1616 22.5128 46.486 22.5128 40.7891C22.5128 35.0921 22.5332 34.4201 22.6355 32.1712C22.7306 30.0912 23.0781 28.9623 23.3701 28.2103C23.7568 27.2147 24.2199 26.5036 24.9666 25.7569C25.7133 25.0103 26.4244 24.548 27.42 24.1605C28.172 23.8671 29.3013 23.5205 31.3813 23.4249C33.3494 23.336 34.112 23.3094 38.0881 23.3049V23.3102ZM51.3896 26.8525C49.9762 26.8525 48.8295 27.9979 48.8295 29.4117C48.8295 30.825 49.9762 31.9717 51.3896 31.9717C52.8029 31.9717 53.9496 30.825 53.9496 29.4117C53.9496 27.9983 52.8029 26.8525 51.3896 26.8525ZM40.002 29.8436C33.9517 29.8436 29.0463 34.749 29.0463 40.7993C29.0463 46.8496 33.9517 51.7528 40.002 51.7528C46.0523 51.7528 50.9559 46.8496 50.9559 40.7993C50.9559 34.749 46.0523 29.8436 40.002 29.8436ZM40.0019 33.6881C43.9291 33.6881 47.1131 36.8717 47.1131 40.7993C47.1131 44.7265 43.9291 47.9105 40.0019 47.9105C36.0743 47.9105 32.8907 44.7265 32.8907 40.7993C32.8907 36.8717 36.0743 33.6881 40.0019 33.6881Z" fill="white"/>
</svg>
