<svg width="36" height="37" viewBox="0 0 36 37" fill="none" xmlns="http://www.w3.org/2000/svg">
<path d="M33.4286 0.272949C34.7946 0.272949 36 1.47831 36 2.92474V33.7015C36 35.148 34.7946 36.273 33.4286 36.273H2.49107C1.125 36.273 0 35.148 0 33.7015V2.92474C0 1.47831 1.125 0.272949 2.49107 0.272949H33.4286ZM10.8482 31.1301V14.014H5.54464V31.1301H10.8482ZM8.19643 11.6033C9.88393 11.6033 11.25 10.2372 11.25 8.54974C11.25 6.86224 9.88393 5.41581 8.19643 5.41581C6.42857 5.41581 5.0625 6.86224 5.0625 8.54974C5.0625 10.2372 6.42857 11.6033 8.19643 11.6033ZM30.8571 31.1301V21.7283C30.8571 17.1479 29.8125 13.5319 24.4286 13.5319C21.8571 13.5319 20.0893 14.9783 19.3661 16.3444H19.2857V14.014H14.2232V31.1301H19.5268V22.6926C19.5268 20.4426 19.9286 18.273 22.7411 18.273C25.4732 18.273 25.4732 20.8444 25.4732 22.773V31.1301H30.8571Z" fill="white"/>
</svg>
