<svg width="80" height="81" viewBox="0 0 80 81" fill="none" xmlns="http://www.w3.org/2000/svg">
<path opacity="0.1" fill-rule="evenodd" clip-rule="evenodd" d="M0 40.7988C0 18.7074 17.9086 0.798828 40 0.798828C62.0914 0.798828 80 18.7074 80 40.7988C80 62.8902 62.0914 80.7988 40 80.7988C17.9086 80.7988 0 62.8902 0 40.7988Z" fill="white"/>
<path d="M55.4286 22.7988C56.7946 22.7988 58 24.0042 58 25.4506V56.2274C58 57.6738 56.7946 58.7988 55.4286 58.7988H24.4911C23.125 58.7988 22 57.6738 22 56.2274V25.4506C22 24.0042 23.125 22.7988 24.4911 22.7988H55.4286ZM32.8482 53.656V36.5399H27.5446V53.656H32.8482ZM30.1964 34.1292C31.8839 34.1292 33.25 32.7631 33.25 31.0756C33.25 29.3881 31.8839 27.9417 30.1964 27.9417C28.4286 27.9417 27.0625 29.3881 27.0625 31.0756C27.0625 32.7631 28.4286 34.1292 30.1964 34.1292ZM52.8571 53.656V44.2542C52.8571 39.6738 51.8125 36.0578 46.4286 36.0578C43.8571 36.0578 42.0893 37.5042 41.3661 38.8703H41.2857V36.5399H36.2232V53.656H41.5268V45.2185C41.5268 42.9685 41.9286 40.7988 44.7411 40.7988C47.4732 40.7988 47.4732 43.3703 47.4732 45.2988V53.656H52.8571Z" fill="white"/>
</svg>
