<svg width="80" height="81" viewBox="0 0 80 81" fill="none" xmlns="http://www.w3.org/2000/svg">
<path opacity="0.1" fill-rule="evenodd" clip-rule="evenodd" d="M0 40.7988C0 18.7074 17.9086 0.798828 40 0.798828C62.0914 0.798828 80 18.7074 80 40.7988C80 62.8902 62.0914 80.7988 40 80.7988C17.9086 80.7988 0 62.8902 0 40.7988Z" fill="white"/>
<path fill-rule="evenodd" clip-rule="evenodd" d="M38.802 33.3111L38.8859 34.6952L37.487 34.5257C32.3948 33.876 27.9461 31.6728 24.1689 27.9725L22.3223 26.1364L21.8466 27.4923C20.8394 30.5147 21.4829 33.7065 23.5813 35.8533C24.7005 37.0397 24.4487 37.2091 22.5181 36.503C21.8466 36.277 21.2591 36.1075 21.2031 36.1923C21.0073 36.39 21.6788 38.9604 22.2104 39.9773C22.9378 41.3897 24.4207 42.7737 26.0435 43.5929L27.4145 44.2426L25.7917 44.2708C24.2249 44.2708 24.1689 44.2991 24.3368 44.8923C24.8964 46.7283 27.1067 48.6773 29.5689 49.5247L31.3036 50.1179L29.7927 51.0218C27.5544 52.3211 24.9243 53.0556 22.2943 53.1121C21.0352 53.1403 20 53.2533 20 53.338C20 53.6205 23.4135 55.2023 25.4 55.8237C31.3595 57.6598 38.4383 56.8689 43.7543 53.7335C47.5315 51.502 51.3087 47.0672 53.0714 42.7737C54.0227 40.4858 54.974 36.3052 54.974 34.2997C54.974 33.0004 55.0579 32.8309 56.6247 31.2773C57.5481 30.3734 58.4154 29.3848 58.5833 29.1023C58.8631 28.5656 58.8351 28.5656 57.4082 29.0458C55.0299 29.8932 54.6942 29.7802 55.8693 28.5091C56.7367 27.6052 57.7719 25.9669 57.7719 25.4867C57.7719 25.402 57.3522 25.5432 56.8766 25.7975C56.3729 26.0799 55.2538 26.5036 54.4144 26.7578L52.9035 27.238L51.5325 26.3059C50.7771 25.7975 49.7139 25.2325 49.1543 25.063C47.7274 24.6676 45.545 24.7241 44.2579 25.176C40.7605 26.4471 38.5502 29.7237 38.802 33.3111Z" fill="white"/>
</svg>
