<svg width="80" height="81" viewBox="0 0 80 81" fill="none" xmlns="http://www.w3.org/2000/svg">
<path opacity="0.1" fill-rule="evenodd" clip-rule="evenodd" d="M0 40.7988C0 18.7074 17.9086 0.798828 40 0.798828C62.0914 0.798828 80 18.7074 80 40.7988C80 62.8902 62.0914 80.7988 40 80.7988C17.9086 80.7988 0 62.8902 0 40.7988Z" fill="white"/>
<path d="M51.624 26.0577H28.29C23.71 26.0577 20 29.7277 20 34.2557V45.7917C20 50.3197 23.712 53.9917 28.29 53.9917H51.624C56.204 53.9917 59.914 50.3197 59.914 45.7917V34.2557C59.914 29.7277 56.202 26.0557 51.624 26.0557V26.0577ZM46.018 40.5837L35.104 45.7337C35.0374 45.7657 34.9638 45.7804 34.8901 45.7764C34.8163 45.7723 34.7447 45.7497 34.6821 45.7106C34.6194 45.6715 34.5676 45.6171 34.5316 45.5526C34.4956 45.4881 34.4764 45.4155 34.476 45.3417V34.7237C34.4773 34.6494 34.4974 34.5767 34.5344 34.5123C34.5715 34.4479 34.6242 34.394 34.6876 34.3554C34.7511 34.3169 34.8233 34.2951 34.8975 34.2919C34.9717 34.2888 35.0455 34.3046 35.112 34.3377L46.028 39.8077C46.1007 39.8439 46.1617 39.9 46.204 39.9693C46.2463 40.0387 46.2682 40.1186 46.2672 40.1998C46.2661 40.281 46.2422 40.3603 46.1981 40.4286C46.154 40.4968 46.0916 40.5513 46.018 40.5857V40.5837Z" fill="white"/>
</svg>
